# xmcd CD database file
#
# Track frame offsets:
#	187
#	14490
#	27255
#	43587
#	59990
#	82047
#	100475
#	117330
#	128787
#	144497
#	158582
#
# Disc length: 2476 seconds
#
# Revision: 1
# Processed by: cddbd v1.5.2PL0 Copyright (c) Steve Scherf et al.
# Submitted via: CDex 1.51
#
DISCID=9909aa0b
DTITLE=SLAYER - Show No Mercy
DYEAR=1983
DGENRE=Thrash Metal
TTITLE0=Evil Has No Boundaries
TTITLE1=The Antichrist
TTITLE2=Die By The Sword
TTITLE3=Fight Till Death
TTITLE4=Metalstorm/Face The Slayer
TTITLE5=Black Magic
TTITLE6=Tormentor
TTITLE7=Final Command
TTITLE8=Crionics
TTITLE9=Show No Mercy
TTITLE10=Chemical Warfare
EXTD=YEAR: 1983
EXTT0=
EXTT1=
EXTT2=
EXTT3=
EXTT4=
EXTT5=
EXTT6=
EXTT7=
EXTT8=
EXTT9=
EXTT10=
PLAYORDER=
